<?xml version="1.0" encoding="utf-8"?>
<!-- Generator: Adobe Illustrator 19.1.0, SVG Export Plug-In . SVG Version: 6.00 Build 0)  -->
<svg version="1.1" id="Capa_1" xmlns="http://www.w3.org/2000/svg" xmlns:xlink="http://www.w3.org/1999/xlink" x="0px" y="0px"
	 viewBox="0 0 92.1 81.6" style="enable-background:new 0 0 92.1 81.6;" xml:space="preserve">
<style type="text/css">
	.st0{fill:#CD062F;}
</style>
<g>
	<path class="st0" d="M37.9,55.1L37.9,55.1c-3.4,0-5.9-1-7.4-2.9c-1.4-1.9-1.7-4.5-0.9-7.6c0.4-1.4,1-2.9,1.8-4.5l0.1-0.2h2.4
		l-0.4,0.7c-0.1,0.1-0.2,0.3-0.2,0.4c-0.8,1.4-1.3,2.8-1.7,4.1c-0.7,2.5-0.5,4.5,0.5,5.9c1.1,1.4,3.1,2.1,5.8,2.1
		c3.5,0,8-1.2,13-3.5c13.8-6.4,27.1-19.3,29.6-28.7c0.7-2.5,0.5-4.5-0.5-5.9c-1.1-1.4-3.1-2.1-5.8-2.1c-3.5,0-8,1.2-13,3.5
		c-2.9,1.3-5.8,3-8.6,4.9c-0.1,0.1-0.3,0.2-0.4,0.3l-0.8,0.5l0-2.5l0.1-0.1c2.9-1.9,5.9-3.6,8.8-5c5.3-2.4,10.1-3.7,13.9-3.7
		c3.4,0,5.9,1,7.4,2.9c1.4,1.9,1.7,4.5,0.9,7.6c-2.7,9.9-16.4,23.4-30.7,30C46.5,53.8,41.7,55.1,37.9,55.1"/>
	<path class="st0" d="M40.8,18.7c0,2.7,1.5,4.1,3.9,4.1c2.4,0,3.9-1.3,3.9-4.1c0-2.7-1.5-4-3.9-4C42.3,14.7,40.8,16,40.8,18.7
		 M43.1,18.7c0-1.5,0.7-2.1,1.6-2.1c0.9,0,1.6,0.5,1.6,2.1s-0.7,2.1-1.6,2.1C43.7,20.8,43.1,20.3,43.1,18.7 M37.2,22.7l2.7-0.1
		l-3.4-4.1l3-3.6L37,14.8l-2.4,3v-7.3l-2.2,0.1v12h2.2v-3.3L37.2,22.7z M24.9,22.4c0.8,0.3,1.7,0.4,2.6,0.4c2.1,0,3.2-0.8,3.2-2.4
		c0-2.7-3.7-2.4-3.7-3.1c-0.1-0.5,0.3-0.7,0.8-0.7c0.6,0,1.6,0.1,2.3,0.4l0.3-1.9c-0.8-0.3-1.7-0.4-2.6-0.4c-2.1,0-3.1,0.8-3.1,2.4
		c0,2.7,3.7,2.4,3.7,3.1c0.1,0.5-0.3,0.7-0.8,0.7c-0.6,0-1.6-0.1-2.4-0.4L24.9,22.4z M21.8,11.4c-0.7,0-1.3,0.5-1.3,1.3
		c0,0.7,0.5,1.3,1.3,1.3c0.7,0,1.3-0.5,1.3-1.3C23,11.9,22.5,11.4,21.8,11.4 M20.6,14.9v7.7h2.2v-7.8L20.6,14.9z M16.8,11.4
		l-2.5,9.1l-2.5-9.1l-2.5,0.1l3.4,11.1H16l3.4-11.1L16.8,11.4z"/>
	<path class="st0" d="M60.8,36.2l2.7-0.1L60.2,32l3-3.6l-2.6-0.1l-2.4,3V24l-2.2,0.1v12h2.2v-3.3L60.8,36.2z M50.2,34.6
		c-0.4,0-0.7-0.2-0.7-0.7c0-0.6,0.4-0.8,2.2-1v1.2C51.2,34.4,50.7,34.6,50.2,34.6 M51.7,31.5c-3.3,0.3-4.3,1-4.3,2.6
		c0,1.5,1,2.2,2.2,2.2c0.7,0,1.5-0.2,2.4-0.8l0.3,0.7h1.7v-5.2c0-2-1-2.7-2.6-2.7c-1,0-2.4,0.3-3.5,0.6l0.3,1.9
		c1.3-0.4,2.1-0.5,2.7-0.5c0.6,0,0.9,0.2,0.9,0.8V31.5z M40.9,34v-3.2c0.7-0.3,1.3-0.5,1.8-0.5c0.7,0,1.2,0.4,1.2,1.9
		c0,1.6-0.7,2.1-1.6,2.1C41.8,34.3,41.3,34.2,40.9,34 M40.9,35.9c0.6,0.3,1.3,0.4,1.9,0.4c1.8,0,3.3-1.2,3.3-4.1
		c0-2.7-1.2-4.1-2.8-4.1c-0.8,0-1.6,0.4-2.5,0.9v-0.8l-2.2,0.1v11.1l2.2-0.1V35.9z M33.5,30c0.8,0,1.2,0.5,1.1,1.5h-2.5
		C32.3,30.5,32.8,30,33.5,30 M36.8,33c0.4-3.3-1-4.8-3.1-4.8c-2.1,0-3.7,1.2-3.7,4.1c0,2.9,1.4,4,3.7,4c1,0,1.9-0.2,2.8-0.5L36.2,34
		c-0.8,0.2-1.5,0.4-2.3,0.4c-1,0-1.7-0.4-1.7-1.4H36.8z M25.2,30c0.8,0,1.2,0.5,1.1,1.5h-2.5C24,30.5,24.4,30,25.2,30 M28.5,33
		c0.4-3.3-1-4.8-3.1-4.8c-2.1,0-3.7,1.2-3.7,4.1c0,2.9,1.4,4,3.7,4c1,0,1.9-0.2,2.8-0.5L27.8,34c-0.8,0.2-1.5,0.4-2.3,0.4
		c-1,0-1.7-0.4-1.7-1.4H28.5z M16,27.1v9h2.5v-9h3.1l0.1-2.2h-8.8l-0.1,2.2H16z"/>
	<path class="st0" d="M35.2,69h-0.9l-0.8-1.8H31L30.2,69h-0.9l2.6-6.1h0.6L35.2,69z M31.3,66.4h1.9l-1-2.2L31.3,66.4z"/>
	<rect x="35.9" y="62.9" class="st0" width="0.8" height="6.1"/>
	<polygon class="st0" points="41.8,67.4 42.8,65 43.7,65 41.9,69.1 41.6,69.1 40.5,66.3 39.3,69.1 39,69.1 37.3,65 38.1,65 
		39.2,67.4 40.2,65 40.8,65 	"/>
	<path class="st0" d="M47.4,68.8c-0.4,0.2-0.5,0.3-0.8,0.3c-0.3,0-0.5-0.1-0.6-0.4c-0.3,0.3-0.7,0.4-1.1,0.4c-0.6,0-1-0.5-1-1
		c0-0.8,0.7-1,1.4-1.3l0.7-0.2v-0.2c0-0.5-0.2-0.7-0.7-0.7c-0.4,0-0.9,0.2-1.3,0.7v-0.9c0.3-0.4,0.7-0.5,1.3-0.5
		c0.8,0,1.4,0.4,1.4,1.3v2c0,0.1,0.1,0.2,0.2,0.2c0.1,0,0.2-0.1,0.4-0.2V68.8z M46,67c-0.7,0.2-1.3,0.5-1.3,0.9
		c0,0.3,0.2,0.6,0.6,0.6c0.2,0,0.5-0.1,0.7-0.3V67z"/>
	<polygon class="st0" points="48.3,71 47.4,71 48.8,68.1 47.3,65 48.2,65 49.2,67.2 50.3,65 51.1,65 	"/>
	<path class="st0" d="M54.1,66c-0.4-0.3-0.9-0.4-1.2-0.4c-0.3,0-0.5,0.2-0.5,0.4c0,0.2,0.3,0.4,1,0.8c0.7,0.4,0.9,0.7,0.9,1.1
		c0,0.7-0.6,1.2-1.3,1.2c-0.5,0-0.9-0.1-1.4-0.4v-0.9c0.5,0.4,1,0.5,1.3,0.5c0.3,0,0.6-0.2,0.6-0.5c0-0.5-1.9-0.8-1.9-1.9
		c0-0.7,0.5-1.1,1.3-1.1c0.4,0,0.8,0.1,1.2,0.3V66z"/>
	<path class="st0" d="M60.9,68.8c-0.4,0.2-0.5,0.3-0.8,0.3c-0.3,0-0.5-0.1-0.6-0.4c-0.3,0.3-0.7,0.4-1.1,0.4c-0.6,0-1-0.5-1-1
		c0-0.8,0.7-1,1.4-1.3l0.7-0.2v-0.2c0-0.5-0.2-0.7-0.7-0.7c-0.4,0-0.9,0.2-1.3,0.7v-0.9c0.3-0.4,0.7-0.5,1.3-0.5
		c0.8,0,1.4,0.4,1.4,1.3v2c0,0.1,0.1,0.2,0.2,0.2c0.1,0,0.2-0.1,0.4-0.2V68.8z M59.6,67c-0.7,0.2-1.3,0.5-1.3,0.9
		c0,0.3,0.2,0.6,0.6,0.6c0.2,0,0.5-0.1,0.7-0.3V67z"/>
	<path class="st0" d="M62.6,65v0.9h0c0.4-0.7,0.8-1,1.2-1c0.3,0,0.6,0.2,1,0.5l-0.4,0.7c-0.2-0.2-0.6-0.4-0.7-0.4
		c-0.5,0-1,0.5-1,1.2V69h-0.8v-4H62.6z"/>
	<path class="st0" d="M69.1,67c0,1.3-0.9,2.1-2.2,2.1c-1.2,0-2.1-0.9-2.1-2.1c0-1.1,0.9-2,2.1-2C68.2,64.9,69.1,65.8,69.1,67
		 M65.7,67c0,0.8,0.5,1.4,1.3,1.4c0.8,0,1.4-0.5,1.4-1.4c0-0.8-0.6-1.3-1.4-1.3C66.2,65.6,65.7,66.2,65.7,67"/>
	<path class="st0" d="M72.6,69v-0.5c-0.3,0.4-0.8,0.6-1.2,0.6c-0.8,0-1.4-0.6-1.4-1.6V65h0.8v2.5c0,0.6,0.3,0.9,0.8,0.9
		c0.4,0,0.7-0.2,0.9-0.6V65h0.8v4H72.6z"/>
	<path class="st0" d="M75.4,65.5L75.4,65.5c0.3-0.4,0.8-0.6,1.2-0.6c0.8,0,1.4,0.5,1.4,1.6V69h-0.8v-2.5c0-0.6-0.3-1-0.8-1
		c-0.3,0-0.6,0.2-1,0.6V69h-0.8v-4h0.8V65.5z"/>
	<path class="st0" d="M82.6,69h-1.7c-1.2,0-1.9-0.8-1.9-2.1c0-1.2,0.8-2,2-2c0.3,0,0.5,0,0.8,0.2v-2.1h0.8V69z M81.8,65.8
		c-0.3-0.1-0.5-0.2-0.7-0.2c-0.8,0-1.3,0.5-1.3,1.4c0,0.7,0.3,1.3,1.2,1.3h0.8V65.8z"/>
</g>
</svg>
