<?xml version="1.0" encoding="utf-8"?>
<!-- Generator: Adobe Illustrator 19.1.0, SVG Export Plug-In . SVG Version: 6.00 Build 0)  -->
<svg version="1.1" id="Capa_1" xmlns="http://www.w3.org/2000/svg" xmlns:xlink="http://www.w3.org/1999/xlink" x="0px" y="0px"
	 viewBox="-180 398.1 234.3 45.8" style="enable-background:new -180 398.1 234.3 45.8;" xml:space="preserve">
<style type="text/css">
	.st0{fill:#022B5C;}
</style>
<g>
	<path class="st0" d="M-170.3,420.7l3.1-11.7l6.6,11.4c0.1,0.1,0.2,0.3,0.2,0.4H-170.3z M-173.9,434.4l3.2-12.1v0.3l18.2,0h2.6
		l-8.6-15.1h24.7l-7,26.9H-173.9z"/>
	<path class="st0" d="M31.7,421c-0.8,0-1.2-0.3-1.3-0.7l-0.1-0.2h2.8c0.2,0,0.6,0,1-0.1c0.2,0,0.4-0.1,0.5-0.2
		c0.1-0.1,0.2-0.1,0.2-0.2c0-0.2-0.1-0.3-0.5-0.4c-0.2,0-0.4-0.1-0.6-0.1l-0.7,0c-0.5,0-1,0-1.4-0.2c-0.4-0.1-0.7-0.4-0.7-0.9
		c0-0.7,0.6-1.1,1.2-1.3c0.6-0.2,1.3-0.2,1.7-0.2h2.7c0,0-0.1,0.3-0.1,0.3c0,0.1-0.1,0.1-0.2,0.2c-0.2,0.2-0.5,0.3-0.9,0.3h-1.7
		c-0.2,0-0.6,0-1,0.1c-0.2,0-0.3,0.1-0.4,0.1c-0.1,0.2-0.1,0.2,0,0.3c0.1,0.1,0.2,0.1,0.4,0.1c0.4,0.1,0.8,0.1,1.3,0.1
		c0.5,0,1,0.1,1.4,0.2c0.4,0.1,0.7,0.4,0.7,0.9c0,0.8-0.6,1.3-1.2,1.5c-0.6,0.2-1.4,0.2-1.8,0.2H31.7z M38.1,419.5
		c-0.1,0.3-0.2,0.5-0.3,0.6c-0.2,0.4-0.5,0.8-1,0.8h-0.2l1.1-4.2l3.8,0c0.6,0,1.4,0.2,1.4,1.1c0,1-0.9,1.5-1.7,1.6l-0.9,0H38.1z
		 M38.3,418.6h2.6c0.5,0,0.9-0.2,0.9-0.6c0-0.1-0.1-0.2-0.2-0.2c-0.1-0.1-0.3-0.1-0.5-0.1h-2.6L38.3,418.6z M44.6,419.2h1.7
		l-0.5-1.4L44.6,419.2z M43.8,420.1c-0.2,0.2-0.3,0.3-0.4,0.4c-0.3,0.2-0.7,0.5-1.2,0.5h-0.4l2-2.2l1.5-1.7l0.3-0.3h1.2l1.6,4.2
		h-0.7c-0.3,0-0.6-0.2-0.6-0.4l-0.2-0.5H43.8z M-31.4,416.4c0-0.2-0.1-0.5-1.2-0.6c-1-0.1-4.7,0-6,0c-1.4,0-2.8,0.1-4-0.2
		c-1.1-0.3-2.2-0.9-2.2-2.2c0-4.3,3.6-5.7,6.9-5.7l10.7,0c0,0-0.2,0.6-0.3,0.8c-0.1,0.2-0.3,0.5-0.6,0.7c-0.6,0.5-1.5,1-2.9,1
		l-6.8,0c-2.2,0-4.2,0.4-4.2,2.5c0,0.1,0,0.1,0.2,0.2c0.2,0.1,0.5,0.2,1.1,0.2c1,0.1,4.7,0,6.1,0c1.4,0,2.9,0,4,0.2
		c1.1,0.3,2.2,0.9,2.2,2.2c0,4.2-3.6,5.8-6.9,5.8l-6.8,0l-4.3,0l0.3-0.8c0.4-1,1.3-1.4,2.2-1.5c0.9-0.2,1.8-0.2,2.3-0.2l5.9,0l1.1,0
		C-32.9,418.8-31.4,418.2-31.4,416.4 M-51.6,416.4c0-0.2-0.1-0.5-1.2-0.6c-1-0.1-4.7,0-6,0c-1.4,0-2.8,0.1-4-0.2
		c-1.1-0.3-2.2-0.9-2.2-2.2c0-4.3,3.6-5.7,6.9-5.7l10.7,0c0,0-0.2,0.6-0.3,0.8c-0.1,0.2-0.3,0.5-0.6,0.7c-0.6,0.5-1.5,1-2.9,1
		l-6.8,0c-2.2,0-4.2,0.4-4.2,2.5c0,0.1,0,0.1,0.2,0.2c0.2,0.1,0.5,0.2,1.1,0.2c1,0.1,4.7,0,6.1,0c1.4,0,2.9,0,4,0.2
		c1.1,0.3,2.2,0.9,2.2,2.2c0,4.2-3.6,5.8-6.9,5.8l-6.8,0l-4.3,0l0.3-0.8c0.4-1,1.3-1.4,2.2-1.5c0.9-0.2,1.8-0.2,2.3-0.2l5.9,0l1.1,0
		C-53,418.8-51.6,418.2-51.6,416.4 M-6.4,421l3.5-13.2c0,0,0.5,0.2,0.7,0.3c0.2,0.1,0.5,0.3,0.8,0.5c0.6,0.5,1,1.4,0.8,2.6l-1.9,7.3
		h7.5c1.4,0,2.2,0.5,2.7,1c0.2,0.3,0.4,0.5,0.5,0.7c0.1,0.2,0.3,0.8,0.3,0.8L-6.4,421z M-26.4,421l3.4-13.1h15.7
		c0,0-0.2,0.6-0.3,0.8c-0.1,0.2-0.3,0.5-0.5,0.7c-0.5,0.5-1.4,1-2.7,1l-9.6,0l-0.7,2.5h8.7l-0.7,2.5h-8.7l-0.8,3h9.8
		c0.9,0,1.6,0.6,2.1,1.1c0.2,0.3,0.4,0.5,0.5,0.7c0.1,0.2,0.4,0.8,0.4,0.8H-26.4z M-79.2,415.7h6.4l-1.8-5L-79.2,415.7z
		 M-81.5,418.3l-0.3,0.3c-0.3,0.3-0.6,0.6-1.1,1c-0.9,0.7-2.3,1.5-3.9,1.5h-0.8l6.1-6.8l4.9-5.4l0.8-0.9h3.5l4.9,13.1h-2
		c-1,0-1.6-0.5-1.9-1.1c-0.1-0.4-0.4-1.2-0.6-1.6H-81.5z M9.3,421l3.5-13.2c0,0,0.5,0.2,0.7,0.3c0.2,0.1,0.5,0.3,0.8,0.5
		c0.6,0.5,1,1.4,0.8,2.6l-1.9,7.3h7.5c1.4,0,2.2,0.5,2.7,1c0.2,0.3,0.4,0.5,0.5,0.7c0.1,0.2,0.3,0.8,0.3,0.8H9.3z M-129.8,415.9
		c0-5.6,6.7-8.1,11.3-8.3c0.2,0,0.5,0,0.7,0c0.2,0,0.3,0,0.4,0l7.8,0c0,0-0.2,0.6-0.3,0.8c-0.1,0.2-0.3,0.5-0.6,0.7
		c-0.5,0.5-1.4,1-2.7,1l-5.3,0c-3.3,0-8,1.7-8,5.4c0,2.6,3.2,3.3,5.5,3.3c2.5,0,4.9-0.7,6.6-2.5h-3.2c-1.2,0-2-0.5-2.4-1.1
		c-0.2-0.3-0.3-0.5-0.4-0.7c-0.1-0.2-0.1-0.7-0.1-0.7l10.8,0l-0.1,0.4c-1.4,5.2-6.9,7.2-11.6,7.2
		C-124.6,421.4-129.8,420.2-129.8,415.9 M-103.7,413.7h8.5c1.6,0,3.1-0.6,3.1-2.2c0-0.4-0.3-0.7-0.7-0.9c-0.5-0.2-1.1-0.2-1.5-0.2
		h-8.4L-103.7,413.7z M-90.5,425.3c-0.7,0-1.6-0.2-2.1-1l-4.7-8h-7.1c-0.1,0.4-0.4,1.3-0.9,2.2c-0.6,1.2-1.6,2.6-3.1,2.6h-0.4
		l3.4-13.1l12,0c1.8,0,4.4,0.6,4.4,3.2c0,2.8-2.3,4.5-4.7,5l5.2,9.2H-90.5z M26.8,420.8c-0.4,0.1-0.7,0.2-1,0.2c-0.3,0-0.9,0-0.9,0
		l2.9-11.2c0.3-1,1.2-1.5,1.9-1.7c0.4-0.1,0.7-0.2,0.9-0.2c0.3,0,0.8,0,0.8,0L28.6,419C28.4,420.1,27.5,420.6,26.8,420.8
		 M-132.1,425.3l0.4-1.5h37.1c0.4,0.6,0.7,1.1,1.3,1.5H-132.1z M-132.8,427.8l0.4-1.5l46.3,0l-1.7-2.6h4.9H47.4l-1.1,4.1H-82.9
		H-132.8z M-126.9,434.5l1.5-1.6l-1.5-1.5h1l1,1l1-1h0.9l-1.4,1.4l1.7,1.7h-1l-1.2-1.1l-1.1,1.1H-126.9z M-117.8,432h-2v1.9h2v-0.7
		l0.8,0.2v0.4c0,0.6-0.2,0.7-0.8,0.7h-1.9c-0.6,0-0.8-0.2-0.8-0.7v-1.6c0-0.6,0.2-0.7,0.8-0.7h1.9c0.6,0,0.8,0.1,0.8,0.7v0.3
		l-0.8,0.1V432z M-114.1,434.5v-3.1h3.3v0.5h-2.5v0.7h1.5v0.5h-1.5v0.8h2.6v0.6H-114.1z M-108,434.5v-3.1h0.8v2.5h2.4v0.6H-108z
		 M-102.3,434.5v-3.1h0.8v2.5h2.4v0.6H-102.3z M-96.6,434.5v-3.1h3.3v0.5h-2.5v0.7h1.5v0.5h-1.5v0.8h2.6v0.6H-96.6z M-90.5,434.5
		v-3.1h0.5l2.6,2v-2h0.7v3.1h-0.5l-2.6-2.1v2.1H-90.5z M-80.9,432h-2v1.9h2v-0.7l0.8,0.2v0.4c0,0.6-0.2,0.7-0.8,0.7h-1.9
		c-0.6,0-0.8-0.2-0.8-0.7v-1.6c0-0.6,0.2-0.7,0.8-0.7h1.9c0.6,0,0.8,0.1,0.8,0.7v0.3l-0.8,0.1V432z M-77.2,434.5v-3.1h3.3v0.5h-2.5
		v0.7h1.5v0.5h-1.5v0.8h2.6v0.6H-77.2z M-64.8,431.9v2.5h-0.7v-2.5H-67v-0.6h3.7v0.6H-64.8z M-60.6,434.5v-3.1h0.8v1.2h2.3v-1.2h0.7
		v3.1h-0.7v-1.3h-2.3v1.3H-60.6z M-53.7,434.5v-3.1h2.8c0.5,0,0.7,0.2,0.7,0.6v0.7c0,0.4-0.2,0.6-0.7,0.6h-0.4l1.5,1.2H-51l-1.3-1.2
		H-53v1.2H-53.7z M-51.3,431.9H-53v0.8h1.7c0.2,0,0.3,0,0.3-0.2v-0.4C-50.9,432-51.1,431.9-51.3,431.9 M-47.4,432.1
		c0-0.6,0.2-0.7,0.8-0.7h2.4c0.6,0,0.8,0.1,0.8,0.7v1.6c0,0.6-0.2,0.7-0.8,0.7h-2.4c-0.6,0-0.8-0.1-0.8-0.7V432.1z M-46.6,433.9h2.5
		V432h-2.5V433.9z M-39.7,431.4v2.5h2.1v-2.5h0.8v2.3c0,0.6-0.2,0.7-0.8,0.7h-2c-0.6,0-0.8-0.2-0.8-0.7v-2.3H-39.7z M-30.7,432H-33
		v1.9h2.3v-0.7h-1.2v-0.5h2v1.1c0,0.6-0.2,0.7-0.8,0.7H-33c-0.6,0-0.8-0.2-0.8-0.7v-1.6c0-0.6,0.2-0.7,0.8-0.7h2.2
		c0.6,0,0.8,0.1,0.8,0.7l-0.7,0.2V432z M-27,434.5v-3.1h0.8v1.2h2.3v-1.2h0.7v3.1h-0.7v-1.3h-2.3v1.3H-27z M-13.7,431.9v2.5h-0.7
		v-2.5H-16v-0.6h3.7v0.6H-13.7z M-9.6,434.5v-3.1h3.3v0.5h-2.5v0.7h1.5v0.5h-1.5v0.8h2.6v0.6H-9.6z M-0.8,432h-2v1.9h2v-0.7l0.8,0.2
		v0.4c0,0.6-0.2,0.7-0.8,0.7h-1.9c-0.6,0-0.8-0.2-0.8-0.7v-1.6c0-0.6,0.2-0.7,0.8-0.7h1.9c0.6,0,0.8,0.1,0.8,0.7v0.3l-0.8,0.1V432z
		 M2.9,434.5v-3.1h0.8v1.2H6v-1.2h0.7v3.1H6v-1.3H3.7v1.3H2.9z M9.8,434.5v-3.1h0.5l2.6,2v-2h0.7v3.1h-0.5l-2.6-2.1v2.1H9.8z
		 M16.6,432.1c0-0.6,0.2-0.7,0.8-0.7h2.4c0.6,0,0.8,0.1,0.8,0.7v1.6c0,0.6-0.2,0.7-0.8,0.7h-2.4c-0.6,0-0.8-0.1-0.8-0.7V432.1z
		 M17.3,433.9h2.5V432h-2.5V433.9z M23.6,434.5v-3.1h0.8v2.5h2.4v0.6H23.6z M29.2,432.1c0-0.6,0.2-0.7,0.8-0.7h2.4
		c0.6,0,0.8,0.1,0.8,0.7v1.6c0,0.6-0.2,0.7-0.8,0.7H30c-0.6,0-0.8-0.1-0.8-0.7V432.1z M29.9,433.9h2.5V432h-2.5V433.9z M39.2,432
		h-2.3v1.9h2.3v-0.7H38v-0.5h2v1.1c0,0.6-0.2,0.7-0.8,0.7h-2.2c-0.6,0-0.8-0.2-0.8-0.7v-1.6c0-0.6,0.2-0.7,0.8-0.7h2.2
		c0.6,0,0.8,0.1,0.8,0.7l-0.7,0.2V432z M43.6,434.5v-1.4l-1.7-1.7h1l1.1,1.1l1.1-1.1h0.9l-1.7,1.7v1.4H43.6z M-132.7,434.5v-3.1h3.3
		v0.5h-2.5v0.7h1.5v0.5h-1.5v0.8h2.6v0.6H-132.7z"/>
</g>
</svg>
