<?xml version="1.0" encoding="utf-8"?>
<!-- Generator: Adobe Illustrator 19.1.0, SVG Export Plug-In . SVG Version: 6.00 Build 0)  -->
<svg version="1.1" id="Capa_1" xmlns="http://www.w3.org/2000/svg" xmlns:xlink="http://www.w3.org/1999/xlink" x="0px" y="0px"
	 viewBox="-251 406.2 92.1 28.7" style="enable-background:new -251 406.2 92.1 28.7;" xml:space="preserve">
<style type="text/css">
	.st0{enable-background:new    ;}
	.st1{fill:#C32C2C;}
</style>
<g>
	<g class="st0">
		<path class="st1" d="M-246.6,416.9c0-0.2,0.1-0.4,0.1-0.6c0-0.6-0.9-0.2-0.9-1c0-0.2-0.1-0.8,2.5-0.8c2.1,0,2.7,0.2,2.7,0.8
			c0,0.8-1,0.3-1.1,1c0,0.2-0.1,0.5-0.2,0.7l-0.5,3.5c0,0.3-0.1,0.5-0.1,0.8c0,1,0.9,0.5,0.9,1.2c0,0.9-1.7,0.9-2.4,0.9
			c-2.1,0-2.9-0.2-2.9-0.9c0-0.8,1.1-0.2,1.3-1.5L-246.6,416.9z"/>
		<path class="st1" d="M-237.4,419.4c0-0.2-0.1-0.4-0.4-0.4c-0.9,0-1.1,1.9-1.2,2.7c-0.1,1.4-0.4,1.7-2,1.8c-0.5,0-0.9-0.1-0.9-0.7
			c0-0.6,0.6-2.5,0.5-3.6c0-0.3-0.1-0.4-0.4-0.4h-0.1c-0.3,0-0.4-0.2-0.4-0.4c0-0.4,0.4-0.6,0.6-0.8c0.5-0.3,1.7-0.7,2.3-0.7
			c0.8,0,0.4,1.1,0.8,1.1c0.3,0,1.3-1.1,2.4-1.1c0.7,0,1.4,0.4,1.4,1.2c0,0.9-0.4,2.4-0.4,3.2c0,0.5,0.6,0.2,0.6,0.7
			c0,0.9-1.9,1.5-2.6,1.5c-0.6,0-0.9-0.3-0.9-0.8c0-0.6,0.2-1.5,0.3-2.1L-237.4,419.4z"/>
		<path class="st1" d="M-229,418.9c-0.5,0-0.5-0.7-1-0.7c-0.2,0-0.4,0.2-0.4,0.4c0,0.8,1.8,1.4,1.8,2.9c0,1.6-1.8,2.1-3.1,2.1
			c-0.8,0-2.3-0.2-2.3-1.3c0-0.4,0.2-0.9,0.7-0.9c0.5,0,0.4,0.8,1.1,0.8c0.3,0,0.5-0.1,0.5-0.4c0-0.7-1.6-1.3-1.6-2.7
			c0-1.5,1.7-2.2,3-2.2c0.7,0,1.9,0.2,1.9,1.1C-228.3,418.3-228.6,418.9-229,418.9z"/>
		<path class="st1" d="M-220.6,420.5c0,0.2-0.1,0.4-0.1,0.6c0,0.3,0.1,0.4,0.4,0.4c0.3,0,0.4,0,0.4,0.3c0,1-2.1,1.6-2.9,1.6
			c-0.8,0-0.4-1.1-0.9-1.1c-0.3,0-1.3,1.2-2.7,1.1c-0.7,0-1.1-0.5-1.1-1.3c0-0.7,0.3-1.7,0.4-2.6c0-0.3,0.1-0.6-0.3-0.7
			c-0.3,0-0.5-0.1-0.5-0.4c0-0.5,0.7-0.9,1.1-1c0.6-0.3,1.3-0.5,2-0.5c0.5,0,0.6,0.3,0.6,0.7c0,0.5-0.3,1.7-0.4,2.3
			c0,0.2-0.3,1.4,0.2,1.4c0.4,0,0.7-0.5,0.8-0.8c0.5-1.2,0.3-2.8,0.8-3.2c0.4-0.3,1.2-0.4,1.7-0.4c0.4,0,0.7,0.1,0.7,0.5
			c0,0.2-0.1,0.5-0.1,0.6L-220.6,420.5z"/>
		<path class="st1" d="M-215.6,416.3c0,0.4-0.1,0.9-0.1,1.3c0,0.1,0,0.2,0.2,0.2c0.2,0,0.8-0.9,1.8-0.9c1.3,0,1.8,1.1,1.7,2.2
			c-0.2,2.5-1.7,4.5-4.5,4.5c-1,0-2.3-0.4-2.3-1.6c0-0.6,0.2-1.5,0.3-2.1c0.2-1,0.3-2.1,0.3-3.1c0-0.4,0-0.5-0.4-0.5
			c-0.4,0-0.5,0-0.5-0.5c0-0.5,0.5-0.7,0.9-0.9c0.5-0.2,1.6-0.5,2.2-0.5c0.8,0,0.7,0.4,0.6,1.1L-215.6,416.3z M-216.3,421.8
			c0,0.2,0.1,0.4,0.3,0.4c0.8,0,1-2.5,1-2.7c0-0.2,0-0.7-0.4-0.7C-216,418.8-216.3,421.6-216.3,421.8z"/>
		<path class="st1" d="M-204.6,417.4c-0.1,0.8-0.3,1.9-0.4,3.2c0,0.2-0.1,0.6,0,0.8c0.1,0.2,0.1,0.1,0.3,0.2c0.2,0,0.3,0.1,0.3,0.3
			c0,0.8-1.8,1.5-2.5,1.5c-1.1,0-0.6-1.1-1-1.1c-0.3,0-0.9,1.1-2.2,1.1c-1.2,0-1.6-1-1.6-2c0.1-2.3,1.5-4.4,3.4-4.6
			c0.9-0.1,1.2,0.5,1.6,0.5c0.1,0,0.4-0.1,0.5-0.2c0.4-0.2,0.7-0.3,1.1-0.3C-204.8,416.9-204.6,417.1-204.6,417.4z M-207.2,418.8
			c0-0.2-0.1-0.4-0.3-0.4c-0.7,0-1.5,1.9-1.5,2.7c0,0.2,0,0.5,0.3,0.5C-208,421.5-207.2,419.4-207.2,418.8z"/>
		<path class="st1" d="M-199,419.4c0-0.2-0.1-0.4-0.4-0.4c-0.9,0-1.1,1.9-1.2,2.7c-0.1,1.4-0.4,1.7-2,1.8c-0.5,0-0.9-0.1-0.9-0.7
			c0-0.6,0.6-2.5,0.5-3.6c0-0.3-0.1-0.4-0.4-0.4h-0.1c-0.3,0-0.4-0.2-0.4-0.4c0-0.4,0.4-0.6,0.6-0.8c0.5-0.3,1.7-0.7,2.3-0.7
			c0.8,0,0.4,1.1,0.8,1.1c0.3,0,1.3-1.1,2.4-1.1c0.7,0,1.4,0.4,1.4,1.2c0,0.9-0.4,2.4-0.4,3.2c0,0.5,0.6,0.2,0.6,0.7
			c0,0.9-1.9,1.5-2.6,1.5c-0.6,0-0.9-0.3-0.9-0.8c0-0.6,0.2-1.5,0.3-2.1L-199,419.4z"/>
		<path class="st1" d="M-190,423.4c0,0-0.2,0-0.4,0c-0.2,0-0.5,0-0.7,0c-0.5,0-0.9-0.2-0.9-0.7c0-0.8,0.7-0.4,1-1.2
			c0.3-0.7,0.7-4.2,0.7-5.1c0-0.5-0.9-0.3-0.9-1c0-0.7,0.9-0.9,3.3-0.9c1.6,0,1.8,0.3,1.8,0.8c0,1.1-1.1-0.2-1.3,1.9l-0.3,3.7
			c0,0.2-0.1,0.5,0,0.7c0.1,0.3,0.8,0.3,1,0.3c1.6,0,1.3-1.5,2.2-1.5c0.5,0,0.8,0.4,0.8,0.9c0,0.7-0.4,2.3-1.3,2.3
			c-0.2,0-0.3,0-0.5-0.1c-0.1,0-0.3-0.1-0.5-0.1H-190z"/>
		<path class="st1" d="M-180.1,420.6c-0.1,0.6,0,0.9,0.4,0.9c0.3,0,0.5-0.2,0.7-0.2c0.3,0,0.3,0.2,0.3,0.5c0,1-2.4,1.8-3.1,1.8
			c-0.8,0-1.3-0.4-1.3-1.2c0-0.4,0.1-0.8,0.1-1.2l0.4-2.2c0.1-0.5,0-0.6-0.5-0.6c-0.3,0-0.5-0.1-0.5-0.4c0-0.5,0.3-0.8,0.8-0.9
			c0.4,0,0.4-0.2,0.6-0.8c0.1-0.4,0.3-0.7,0.6-0.9c0.4-0.2,1.1-0.3,1.6-0.3c0.3,0,0.5,0.1,0.5,0.5c0,0.3-0.1,1-0.1,1.2
			c0,0.4,0.4,0.3,0.8,0.3c0.2,0,0.3,0,0.3,0.2c0,0.2,0,0.4-0.1,0.5c0,0.3,0,0.5-0.4,0.5c-0.9,0-0.9,0-1.1,1.1L-180.1,420.6z"/>
		<path class="st1" d="M-173.7,417.3c0.2,0,0.3-0.8,0.3-0.9c0-0.2-0.1-0.3-0.2-0.3c-0.1,0-0.2,0-0.3,0c-0.3,0-0.4-0.1-0.4-0.4
			c0-0.6,0.6-0.8,1-0.9c0.5-0.2,1.5-0.4,2.1-0.4c0.4,0,0.6,0.2,0.6,0.6l-0.1,0.5l-0.3,2.2l-0.2,1.7l-0.2,1.7c0,0.4,0,0.4,0.4,0.5
			c0.2,0,0.4,0.1,0.4,0.4c0.1,0.8-2.1,1.5-2.6,1.5c-0.6,0-0.7-0.3-0.7-0.8c0-0.1-0.1-0.3-0.2-0.3c-0.3,0-1,1.2-2.3,1.2
			c-1.2,0-1.5-0.9-1.6-2c0-1.8,1.1-4.6,3.3-4.7C-174.2,416.9-173.9,417.3-173.7,417.3z M-173.7,418.7c0-0.2,0-0.4-0.3-0.4
			c-0.7,0-1.3,2.1-1.3,2.8c0,0.2,0.1,0.4,0.3,0.4C-174.3,421.5-173.6,419.4-173.7,418.7z"/>
		<path class="st1" d="M-163.1,417.4c-0.1,0.8-0.3,1.9-0.4,3.2c0,0.2-0.1,0.6,0,0.8c0,0.2,0.1,0.1,0.3,0.2c0.2,0,0.3,0.1,0.3,0.3
			c0,0.8-1.8,1.5-2.5,1.5c-1.1,0-0.6-1.1-1-1.1c-0.3,0-0.9,1.1-2.2,1.1c-1.2,0-1.6-1-1.6-2c0.1-2.3,1.5-4.4,3.4-4.6
			c0.9-0.1,1.2,0.5,1.6,0.5c0.1,0,0.4-0.1,0.5-0.2c0.4-0.2,0.7-0.3,1.1-0.3C-163.2,416.9-163,417.1-163.1,417.4z M-165.6,418.8
			c0-0.2-0.1-0.4-0.3-0.4c-0.7,0-1.5,1.9-1.5,2.7c0,0.2,0,0.5,0.3,0.5C-166.4,421.5-165.6,419.4-165.6,418.8z"/>
	</g>
</g>
</svg>
