<?xml version="1.0" encoding="utf-8"?>
<!-- Generator: Adobe Illustrator 19.1.0, SVG Export Plug-In . SVG Version: 6.00 Build 0)  -->
<svg version="1.1" id="Capa_1" xmlns="http://www.w3.org/2000/svg" xmlns:xlink="http://www.w3.org/1999/xlink" x="0px" y="0px"
	 viewBox="0 0 92.1 28.7" style="enable-background:new 0 0 92.1 28.7;" xml:space="preserve">
<style type="text/css">
	.st0{fill:#B6472C;}
</style>
<g>
	<g>
		<path class="st0" d="M7,18.5c0.3,1.9,1.7,2.6,4,2.6c1.3,0,2.7-0.3,4.1-1v3.3c-1.5,0.6-3.2,0.9-4.9,0.9c-4.4,0-7.8-2.6-7.8-7
			s3-7,7.2-7c5,0,6.8,3.5,6.8,7.5v0.9H7z M12.2,15.9c0-1.5-0.7-2.8-2.6-2.8c-1.7,0-2.5,1.3-2.6,2.8H12.2z"/>
		<path class="st0" d="M33.2,23.9h-4.3v-2.4h-0.1c-0.6,1.5-2.5,2.7-4.6,2.7c-4,0-6.1-3.3-6.1-7.3c0-3.3,2-6.8,5.8-6.8
			c1.9,0,3.4,0.5,4.6,2h0.1V4.5h4.7V23.9z M25.7,20.6c1.5,0,2.8-1.5,2.8-3.4c0-2-1.1-3.5-2.8-3.5c-1.8,0-2.8,1.5-2.8,3.3
			C22.9,19.2,24,20.6,25.7,20.6z"/>
		<path class="st0" d="M41.2,8.2h-4.6V4.8h4.6V8.2z M36.6,10.4h4.6v13.5h-4.6V10.4z"/>
		<path class="st0" d="M55.2,14.3c-0.9-0.5-1.7-0.7-2.8-0.7c-2,0-3.6,1.4-3.6,3.7c0,2.1,1.8,3.5,3.8,3.5c1.1,0,2.1-0.2,2.9-0.6
			l0.1,3.5c-1.2,0.4-2.6,0.6-3.8,0.6c-4.4,0-7.8-2.6-7.8-7c0-4.5,3.4-7,7.8-7c1.4,0,2.6,0.2,3.7,0.7L55.2,14.3z"/>
		<path class="st0" d="M66.3,23.9c0-0.7-0.1-1.4-0.1-2.1h-0.1c-1.1,1.7-2.3,2.4-4.3,2.4c-2.7,0-5-1.3-5-4.2c0-4.1,4.5-4.6,6.9-4.6
			c0.7,0,1.6,0.1,2.2,0.2c0-1.8-1.4-2.3-3.1-2.3c-1.5,0-3,0.3-4.3,1l-0.1-3.1c1.7-0.7,3.4-1,5.4-1c3.4,0,6.4,1.5,6.4,5.6v5
			c0,1.1,0.1,2.1,0.3,3.2H66.3z M63.1,21.1c1.8,0,2.9-1.6,2.9-3.2c-0.6,0-1.3-0.1-2-0.1c-1.6,0-2.8,0.5-2.8,1.8
			C61.2,20.6,62.1,21.1,63.1,21.1z"/>
		<path class="st0" d="M73.1,20.2c1.1,0.5,2.7,0.9,4.4,0.9c1,0,1.9-0.2,1.9-1.1c0-2.3-6.6-0.7-6.6-5.5c0-3.1,3-4.4,5.7-4.4
			c1.6,0,3.2,0.2,4.7,0.8l-0.4,3.2c-1-0.6-2.5-0.9-3.6-0.9c-1,0-2.1,0.2-2.1,0.9c0,2.1,6.9,0.4,6.9,5.6c0,3.6-3.2,4.5-6.3,4.5
			c-2.1,0-3.5-0.2-4.9-0.6L73.1,20.2z"/>
	</g>
	<g>
		<path class="st0" d="M84.3,7.3c0-1.5,1.2-2.7,2.7-2.7c1.5,0,2.7,1.2,2.7,2.7c0,1.5-1.2,2.7-2.7,2.7C85.5,10.1,84.3,8.8,84.3,7.3z
			 M89.1,7.3c0-1.3-0.9-2.2-2.1-2.2C85.9,5.1,85,6,85,7.3c0,1.3,0.9,2.2,2.1,2.2C88.2,9.5,89.1,8.6,89.1,7.3z M86,5.8h1.1
			c0.7,0,1.1,0.3,1.1,0.9c0,0.5-0.3,0.8-0.8,0.8l0.8,1.4h-0.6l-0.8-1.3h-0.3v1.3H86V5.8z M86.6,7.1h0.5c0.3,0,0.6,0,0.6-0.5
			c0-0.4-0.3-0.4-0.6-0.4h-0.5V7.1z"/>
	</g>
</g>
</svg>
