<?xml version="1.0" encoding="utf-8"?>
<!-- Generator: Adobe Illustrator 19.1.0, SVG Export Plug-In . SVG Version: 6.00 Build 0)  -->
<svg version="1.1" id="Capa_1" xmlns="http://www.w3.org/2000/svg" xmlns:xlink="http://www.w3.org/1999/xlink" x="0px" y="0px"
	 viewBox="0 0 234.3 45.8" style="enable-background:new 0 0 234.3 45.8;" xml:space="preserve">
<style type="text/css">
	.st0{fill:#FFFFFF;}
</style>
<g>
	<path class="st0" d="M10.9,22.6l3-11.6l6.6,11.2c0.1,0.1,0.2,0.3,0.2,0.4H10.9z M7.3,36.2l3.1-12v0.3l18,0H31L22.5,9.6H47l-7,26.6
		H7.3z"/>
	<path class="st0" d="M210.6,23c-0.8,0-1.2-0.3-1.3-0.7l-0.1-0.2h2.8c0.2,0,0.6,0,1-0.1c0.2,0,0.4-0.1,0.5-0.2
		c0.1-0.1,0.2-0.1,0.2-0.2c0-0.2-0.1-0.3-0.5-0.4c-0.2,0-0.4-0.1-0.6-0.1l-0.7,0c-0.5,0-1,0-1.4-0.2c-0.4-0.1-0.7-0.4-0.7-0.9
		c0-0.7,0.6-1.1,1.1-1.3c0.6-0.2,1.3-0.2,1.7-0.2h2.7c0,0-0.1,0.3-0.1,0.3c0,0.1-0.1,0.1-0.2,0.2c-0.2,0.2-0.5,0.3-0.9,0.3h-1.6
		c-0.2,0-0.6,0-0.9,0.1c-0.2,0-0.3,0.1-0.4,0.1c-0.1,0.2-0.1,0.2,0,0.3c0.1,0.1,0.2,0.1,0.4,0.1c0.4,0.1,0.8,0.1,1.3,0.1
		c0.5,0,1,0.1,1.4,0.2c0.4,0.1,0.7,0.4,0.7,0.9c0,0.8-0.6,1.2-1.2,1.4c-0.6,0.2-1.4,0.2-1.8,0.2H210.6z M216.9,21.4
		c-0.1,0.3-0.2,0.5-0.3,0.6c-0.2,0.4-0.5,0.8-1,0.8h-0.2l1.1-4.2l3.7,0c0.6,0,1.4,0.2,1.4,1.1c0,1-0.9,1.5-1.7,1.6l-0.9,0H216.9z
		 M217.2,20.5h2.5c0.5,0,0.9-0.2,0.9-0.6c0-0.1-0.1-0.2-0.2-0.2c-0.1,0-0.3-0.1-0.5-0.1h-2.5L217.2,20.5z M223.4,21.1h1.7l-0.5-1.4
		L223.4,21.1z M222.6,22c-0.2,0.2-0.3,0.3-0.4,0.4c-0.3,0.2-0.7,0.5-1.2,0.5h-0.4l2-2.2L224,19l0.3-0.3h1.1l1.5,4.2h-0.7
		c-0.3,0-0.5-0.2-0.6-0.4l-0.2-0.5H222.6z M148.2,18.4c0-0.2-0.1-0.5-1.2-0.6c-1-0.1-4.6,0-6,0c-1.4,0-2.8,0-3.9-0.2
		c-1.1-0.3-2.2-0.9-2.2-2.2c0-4.2,3.6-5.6,6.9-5.6l10.5,0c0,0-0.2,0.6-0.3,0.8c-0.1,0.2-0.3,0.5-0.6,0.7c-0.6,0.5-1.5,1-2.9,1
		l-6.7,0c-2.2,0-4.1,0.4-4.1,2.5c0,0.1,0,0.1,0.2,0.2c0.2,0.1,0.5,0.2,1,0.2c1,0.1,4.6,0,6,0c1.4,0,2.8,0,4,0.2
		c1.1,0.3,2.2,0.9,2.2,2.2c0,4.2-3.5,5.7-6.8,5.7l-6.7,0l-4.3,0l0.3-0.8c0.3-1,1.3-1.4,2.1-1.5c0.9-0.2,1.8-0.2,2.3-0.2l5.8,0l1.1,0
		C146.8,20.8,148.2,20.1,148.2,18.4 M128.3,18.4c0-0.2-0.1-0.5-1.2-0.6c-1-0.1-4.6,0-6,0c-1.4,0-2.8,0-3.9-0.2
		c-1.1-0.3-2.2-0.9-2.2-2.2c0-4.2,3.6-5.6,6.9-5.6l10.5,0c0,0-0.2,0.6-0.3,0.8c-0.1,0.2-0.3,0.5-0.6,0.7c-0.6,0.5-1.5,1-2.9,1
		l-6.7,0c-2.2,0-4.1,0.4-4.1,2.5c0,0.1,0,0.1,0.2,0.2c0.2,0.1,0.5,0.2,1,0.2c1,0.1,4.7,0,6,0c1.4,0,2.8,0,4,0.2
		c1.1,0.3,2.2,0.9,2.2,2.2c0,4.2-3.5,5.7-6.8,5.7l-6.7,0l-4.3,0l0.3-0.8c0.3-1,1.3-1.4,2.1-1.5c0.9-0.2,1.8-0.2,2.3-0.2l5.8,0l1.1,0
		C126.9,20.8,128.3,20.1,128.3,18.4 M173,23l3.4-13.1c0,0,0.5,0.1,0.7,0.3c0.2,0.1,0.5,0.3,0.8,0.5c0.6,0.5,1,1.3,0.8,2.6l-1.9,7.2
		h7.4c1.3,0,2.2,0.5,2.7,1c0.2,0.3,0.4,0.5,0.5,0.7c0.1,0.2,0.3,0.8,0.3,0.8L173,23z M153.2,23l3.4-13h15.6c0,0-0.2,0.6-0.3,0.8
		c-0.1,0.2-0.3,0.5-0.5,0.7c-0.5,0.5-1.4,1-2.7,1l-9.5,0l-0.6,2.5h8.6l-0.7,2.5h-8.6l-0.8,2.9h9.7c0.9,0,1.6,0.5,2,1
		c0.2,0.3,0.4,0.5,0.5,0.7c0.1,0.2,0.4,0.8,0.4,0.8H153.2z M101,17.7h6.3l-1.8-5L101,17.7z M98.7,20.2l-0.3,0.3
		c-0.3,0.3-0.6,0.6-1.1,1C96.4,22.2,95,23,93.5,23h-0.7l6-6.7l4.8-5.4l0.8-0.9h3.4l4.8,13h-1.9c-0.9,0-1.6-0.5-1.8-1.1
		c-0.1-0.4-0.4-1.2-0.6-1.6H98.7z M188.4,23l3.4-13.1c0,0,0.5,0.1,0.7,0.3c0.2,0.1,0.5,0.3,0.8,0.5c0.6,0.5,1,1.3,0.8,2.6l-1.9,7.2
		h7.4c1.3,0,2.2,0.5,2.7,1c0.2,0.3,0.4,0.5,0.5,0.7c0.1,0.2,0.3,0.8,0.3,0.8H188.4z M50.9,17.9c0-5.6,6.6-8,11.2-8.2
		c0.2,0,0.5,0,0.7,0c0.2,0,0.3,0,0.4,0l7.7,0c0,0-0.2,0.6-0.3,0.8c-0.1,0.2-0.3,0.5-0.5,0.7c-0.5,0.5-1.4,1-2.7,1l-5.3,0
		c-3.3,0-7.9,1.7-7.9,5.4c0,2.6,3.1,3.3,5.5,3.3c2.5,0,4.9-0.7,6.5-2.5h-3.2c-1.2,0-1.9-0.5-2.3-1.1c-0.2-0.3-0.3-0.5-0.4-0.7
		c-0.1-0.2-0.1-0.7-0.1-0.7l10.7,0l-0.1,0.4c-1.3,5.2-6.8,7.2-11.5,7.2C56.1,23.3,50.9,22.2,50.9,17.9 M76.8,15.8h8.4
		c1.6,0,3.1-0.6,3.1-2.2c0-0.4-0.3-0.7-0.7-0.9c-0.5-0.2-1.1-0.2-1.5-0.2h-8.3L76.8,15.8z M89.8,27.2c-0.7,0-1.6-0.2-2-1l-4.6-7.9
		h-7c-0.1,0.4-0.4,1.3-0.9,2.2c-0.6,1.2-1.6,2.5-3,2.5h-0.4l3.4-13L87,10c1.8,0,4.4,0.6,4.4,3.2c0,2.8-2.3,4.4-4.7,4.9l5.2,9.1H89.8
		z M205.8,22.8c-0.4,0.1-0.7,0.2-1,0.2c-0.3,0-0.9,0-0.9,0l2.9-11.1c0.3-1,1.2-1.5,1.9-1.7c0.3-0.1,0.7-0.2,0.9-0.2
		c0.3,0,0.8,0,0.8,0l-2.9,11C207.4,22,206.5,22.5,205.8,22.8 M48.6,27.2l0.4-1.5h36.7c0.4,0.6,0.7,1.1,1.3,1.5H48.6z M48,29.7
		l0.4-1.4l45.8,0l-1.6-2.6h4.9h128.8l-1.1,4H97.4H48z M53.8,36.2l1.5-1.6l-1.5-1.5h1l1,1l1-1h0.9l-1.4,1.4l1.7,1.6h-1l-1.2-1.1
		l-1.1,1.1H53.8z M62.8,33.8h-2v1.9h2V35l0.7,0.2v0.4c0,0.6-0.2,0.7-0.8,0.7h-1.9c-0.6,0-0.8-0.2-0.8-0.7v-1.6
		c0-0.6,0.2-0.7,0.8-0.7h1.9c0.6,0,0.8,0.1,0.8,0.7v0.3l-0.7,0.1V33.8z M66.5,36.2v-3h3.3v0.5h-2.5v0.7h1.5v0.5h-1.5v0.7h2.5v0.6
		H66.5z M72.5,36.2v-3h0.7v2.5h2.4v0.6H72.5z M78.1,36.2v-3h0.7v2.5h2.4v0.6H78.1z M83.8,36.2v-3H87v0.5h-2.5v0.7H86v0.5h-1.5v0.7
		h2.5v0.6H83.8z M89.8,36.2v-3h0.5l2.6,2v-2h0.7v3h-0.5l-2.6-2v2H89.8z M99.3,33.8h-2v1.9h2V35l0.7,0.2v0.4c0,0.6-0.2,0.7-0.8,0.7
		h-1.9c-0.6,0-0.8-0.2-0.8-0.7v-1.6c0-0.6,0.2-0.7,0.8-0.7h1.9c0.6,0,0.8,0.1,0.8,0.7v0.3l-0.7,0.1V33.8z M102.9,36.2v-3h3.3v0.5
		h-2.5v0.7h1.5v0.5h-1.5v0.7h2.5v0.6H102.9z M115.2,33.8v2.5h-0.7v-2.5H113v-0.5h3.7v0.5H115.2z M119.3,36.2v-3h0.7v1.2h2.3v-1.2
		h0.7v3h-0.7V35h-2.3v1.3H119.3z M126.2,36.2v-3h2.7c0.5,0,0.7,0.2,0.7,0.6v0.7c0,0.4-0.2,0.6-0.7,0.6h-0.4l1.4,1.1h-1.1l-1.3-1.1
		h-0.7v1.1H126.2z M128.6,33.7h-1.7v0.8h1.7c0.2,0,0.3,0,0.3-0.2V34C128.9,33.8,128.8,33.7,128.6,33.7 M132.5,33.9
		c0-0.6,0.2-0.7,0.8-0.7h2.3c0.6,0,0.8,0.1,0.8,0.7v1.6c0,0.6-0.2,0.7-0.8,0.7h-2.3c-0.6,0-0.8-0.1-0.8-0.7V33.9z M133.2,35.7h2.4
		v-1.9h-2.4V35.7z M140.1,33.2v2.5h2.1v-2.5h0.7v2.3c0,0.6-0.2,0.7-0.8,0.7h-2c-0.6,0-0.8-0.2-0.8-0.7v-2.3H140.1z M148.9,33.8h-2.3
		v1.9h2.3V35h-1.2v-0.5h1.9v1c0,0.6-0.2,0.7-0.8,0.7h-2.2c-0.6,0-0.8-0.2-0.8-0.7v-1.6c0-0.6,0.2-0.7,0.8-0.7h2.2
		c0.6,0,0.8,0.1,0.8,0.7l-0.7,0.2V33.8z M152.6,36.2v-3h0.7v1.2h2.3v-1.2h0.7v3h-0.7V35h-2.3v1.3H152.6z M165.7,33.8v2.5H165v-2.5
		h-1.5v-0.5h3.7v0.5H165.7z M169.8,36.2v-3h3.3v0.5h-2.5v0.7h1.5v0.5h-1.5v0.7h2.5v0.6H169.8z M178.5,33.8h-2v1.9h2V35l0.7,0.2v0.4
		c0,0.6-0.2,0.7-0.8,0.7h-1.9c-0.6,0-0.8-0.2-0.8-0.7v-1.6c0-0.6,0.2-0.7,0.8-0.7h1.9c0.6,0,0.8,0.1,0.8,0.7v0.3l-0.7,0.1V33.8z
		 M182.2,36.2v-3h0.7v1.2h2.3v-1.2h0.7v3h-0.7V35h-2.3v1.3H182.2z M189,36.2v-3h0.5l2.6,2v-2h0.7v3h-0.5l-2.6-2v2H189z M195.7,33.9
		c0-0.6,0.2-0.7,0.8-0.7h2.3c0.6,0,0.8,0.1,0.8,0.7v1.6c0,0.6-0.2,0.7-0.8,0.7h-2.3c-0.6,0-0.8-0.1-0.8-0.7V33.9z M196.4,35.7h2.4
		v-1.9h-2.4V35.7z M202.6,36.2v-3h0.7v2.5h2.4v0.6H202.6z M208.2,33.9c0-0.6,0.2-0.7,0.8-0.7h2.3c0.6,0,0.8,0.1,0.8,0.7v1.6
		c0,0.6-0.2,0.7-0.8,0.7H209c-0.6,0-0.8-0.1-0.8-0.7V33.9z M208.9,35.7h2.4v-1.9h-2.4V35.7z M218,33.8h-2.3v1.9h2.3V35h-1.2v-0.5
		h1.9v1c0,0.6-0.2,0.7-0.8,0.7h-2.2c-0.6,0-0.8-0.2-0.8-0.7v-1.6c0-0.6,0.2-0.7,0.8-0.7h2.2c0.6,0,0.8,0.1,0.8,0.7l-0.7,0.2V33.8z
		 M222.4,36.2v-1.4l-1.7-1.7h1l1.1,1.1l1.1-1.1h0.9l-1.6,1.7v1.4H222.4z M48,36.2v-3h3.3v0.5h-2.5v0.7h1.5v0.5h-1.5v0.7h2.5v0.6H48z
		"/>
</g>
</svg>
