<?xml version="1.0" encoding="utf-8"?>
<!-- Generator: Adobe Illustrator 19.1.0, SVG Export Plug-In . SVG Version: 6.00 Build 0)  -->
<svg version="1.1" id="Capa_1" xmlns="http://www.w3.org/2000/svg" xmlns:xlink="http://www.w3.org/1999/xlink" x="0px" y="0px"
	 viewBox="-414 245.9 129.1 71.1" enable-background="new -414 245.9 129.1 71.1" xml:space="preserve">
<g>
	<g>
		<path d="M-407.6,306.1h0.7l1.2,4.2l0,0l1.2-4.2h0.7v4.8h-0.4v-4.4l0,0l-1.2,4.4h-0.4l-1.2-4.4l0,0v4.4h-0.4v-4.8H-407.6z"/>
		<path d="M-397.6,309.7c-0.1,0.8-0.5,1.3-1.1,1.3c-0.8,0-1.2-0.5-1.2-1.9c0-1.2,0.4-1.9,1.2-1.9c0.8,0,1.1,0.5,1.1,1.7v0.1h-1.9
			v0.2c0,1,0.4,1.3,0.8,1.3s0.7-0.3,0.8-0.9L-397.6,309.7L-397.6,309.7z M-398,308.8c0-0.9-0.3-1.2-0.8-1.2s-0.7,0.3-0.8,1.2H-398z"
			/>
		<path d="M-393.9,308.4c0-0.7,0.3-1.1,1.1-1.1c0.7,0,1,0.4,1,0.9v2.1c0,0.2,0.1,0.3,0.2,0.3h0.1v0.3c-0.1,0-0.1,0-0.2,0
			c-0.3,0-0.5-0.1-0.5-0.4v-0.1l0,0c-0.2,0.5-0.5,0.6-0.9,0.6c-0.6,0-0.9-0.4-0.9-1c0-0.5,0.2-0.8,0.7-1l0.8-0.2
			c0.3-0.1,0.3-0.1,0.3-0.6s-0.3-0.6-0.6-0.6c-0.5,0-0.7,0.3-0.7,0.8H-393.9z M-392.2,308.9L-392.2,308.9c-0.1,0.1-0.3,0.2-0.4,0.2
			l-0.3,0.1c-0.4,0.1-0.6,0.3-0.6,0.7s0.2,0.7,0.6,0.7c0.5,0,0.8-0.4,0.8-1v-0.7H-392.2z"/>
		<path d="M-387.6,307.7h-0.5v-0.3h0.5v-1h0.4v1h0.6v0.3h-0.6v2.6c0,0.3,0.1,0.4,0.4,0.4c0.1,0,0.2,0,0.2,0v0.3c0,0-0.1,0-0.3,0
			c-0.5,0-0.8-0.1-0.8-0.6v-2.7H-387.6z"/>
		<path d="M-375.8,310.3c-0.3,0.4-0.7,0.7-1.3,0.7c-0.8,0-1.3-0.6-1.3-1.3c0-0.5,0.3-0.9,0.7-1.2l0.4-0.3c-0.3-0.4-0.5-0.8-0.5-1.2
			c0-0.6,0.4-0.9,1-0.9s0.9,0.4,0.9,0.9c0,0.4-0.2,0.8-0.8,1.2l1,1.4c0.1-0.3,0.2-0.6,0.2-0.9h0.4c0,0.4-0.1,0.9-0.3,1.2l0.6,0.9
			h-0.5L-375.8,310.3z M-377.1,308.4c-0.7,0.5-0.9,0.8-0.9,1.2c0,0.6,0.4,1,1,1c0.4,0,0.8-0.2,1-0.6L-377.1,308.4z M-377,308
			c0.5-0.4,0.6-0.7,0.6-1c0-0.3-0.2-0.5-0.5-0.5c-0.3,0-0.5,0.2-0.5,0.5C-377.5,307.2-377.3,307.6-377,308z"/>
		<path d="M-363.7,309.3c-0.1,1.1-0.6,1.7-1.4,1.7c-1,0-1.5-0.8-1.5-2.5c0-1.7,0.5-2.5,1.5-2.5s1.4,0.7,1.4,1.5h-0.4
			c0-0.6-0.3-1.1-0.9-1.1c-0.7,0-1.1,0.6-1.1,2.1s0.4,2.1,1.1,2.1c0.6,0,0.9-0.5,1-1.3H-363.7z"/>
		<path d="M-360.1,308.4c0-0.7,0.3-1.1,1.1-1.1c0.7,0,1,0.4,1,0.9v2.1c0,0.2,0.1,0.3,0.2,0.3h0.1v0.3c-0.1,0-0.1,0-0.2,0
			c-0.3,0-0.5-0.1-0.5-0.4v-0.1l0,0c-0.2,0.5-0.5,0.6-0.9,0.6c-0.6,0-0.9-0.4-0.9-1c0-0.5,0.2-0.8,0.7-1l0.8-0.2
			c0.3-0.1,0.3-0.1,0.3-0.6s-0.3-0.6-0.6-0.6c-0.5,0-0.7,0.3-0.7,0.8H-360.1z M-358.4,308.9L-358.4,308.9c-0.1,0.1-0.3,0.2-0.4,0.2
			l-0.3,0.1c-0.4,0.1-0.6,0.3-0.6,0.7s0.2,0.7,0.6,0.7c0.5,0,0.8-0.4,0.8-1v-0.7H-358.4z"/>
		<path d="M-353.4,309.1c-0.5-0.2-0.7-0.5-0.7-0.8c0-0.7,0.5-1,1.1-1c0.7,0,1,0.3,1,1v0.1h-0.4v-0.1c0-0.5-0.2-0.7-0.6-0.7
			c-0.5,0-0.7,0.2-0.7,0.6c0,0.2,0.1,0.4,0.5,0.6l0.6,0.2c0.5,0.2,0.7,0.5,0.7,0.9c0,0.6-0.3,1.1-1.1,1.1c-0.7,0-1.1-0.3-1.1-1.1
			v-0.1h0.4v0.1c0,0.5,0.2,0.8,0.7,0.8c0.4,0,0.7-0.2,0.7-0.6c0-0.3-0.1-0.5-0.5-0.7L-353.4,309.1z"/>
		<path d="M-348.1,306.1h0.4v0.7h-0.4V306.1z M-348.1,307.3h0.4v3.6h-0.4V307.3z"/>
		<path d="M-343.8,307.3h0.4v0.5l0,0c0.2-0.4,0.5-0.6,0.9-0.6c0.5,0,0.9,0.3,0.9,1v2.7h-0.4v-2.6c0-0.5-0.2-0.7-0.6-0.7
			c-0.5,0-0.8,0.4-0.8,0.9v2.4h-0.4V307.3z"/>
		<path d="M-335.8,307.3h0.4v3.3c0,1-0.4,1.5-1.2,1.5c-0.7,0-1.1-0.4-1.1-0.9h0.4c0,0.3,0.3,0.5,0.7,0.5c0.5,0,0.8-0.3,0.8-1v-0.6
			l0,0c-0.1,0.4-0.5,0.6-0.8,0.6c-0.5,0-1.1-0.4-1.1-1.8c0-1.2,0.4-1.9,1.1-1.9c0.4,0,0.7,0.2,0.8,0.6l0,0L-335.8,307.3
			L-335.8,307.3z M-336.6,310.6c0.5,0,0.8-0.3,0.8-1.5c0-1.1-0.3-1.5-0.8-1.5s-0.8,0.3-0.8,1.5C-337.3,310.2-337,310.6-336.6,310.6z
			"/>
		<path d="M-326,306.5h-1.2v-0.4h2.9v0.4h-1.2v4.4h-0.4L-326,306.5L-326,306.5z"/>
		<path d="M-321.3,307.3h0.4v0.6l0,0c0.2-0.4,0.5-0.6,0.9-0.6h0.1v0.4c-0.1,0-0.1,0-0.2,0c-0.4,0-0.9,0.3-0.9,1v2.2h-0.4v-3.6
			H-321.3z"/>
		<path d="M-316.3,308.4c0-0.7,0.3-1.1,1.1-1.1c0.7,0,1,0.4,1,0.9v2.1c0,0.2,0.1,0.3,0.2,0.3h0.1v0.3c-0.1,0-0.1,0-0.2,0
			c-0.3,0-0.5-0.1-0.5-0.4v-0.1l0,0c-0.2,0.5-0.5,0.6-0.9,0.6c-0.6,0-0.9-0.4-0.9-1c0-0.5,0.2-0.8,0.7-1l0.8-0.2
			c0.3-0.1,0.3-0.1,0.3-0.6s-0.3-0.6-0.6-0.6c-0.5,0-0.7,0.3-0.7,0.8H-316.3z M-314.6,308.9L-314.6,308.9c-0.1,0.1-0.3,0.2-0.4,0.2
			l-0.3,0.1c-0.4,0.1-0.6,0.3-0.6,0.7s0.2,0.7,0.6,0.7c0.5,0,0.8-0.4,0.8-1v-0.7H-314.6z"/>
		<path d="M-308.3,310.3L-308.3,310.3c-0.1,0.4-0.5,0.7-0.9,0.7c-0.8,0-1.1-0.6-1.1-1.9c0-1.2,0.4-1.9,1.1-1.9
			c0.4,0,0.7,0.2,0.8,0.6l0,0V306h0.4v4.8h-0.4v-0.5H-308.3z M-309.1,310.6c0.4,0,0.8-0.2,0.8-1.5c0-1.3-0.4-1.5-0.8-1.5
			s-0.8,0.2-0.8,1.5C-309.9,310.4-309.5,310.6-309.1,310.6z"/>
		<path d="M-304,306.1h0.4v0.7h-0.4V306.1z M-304,307.3h0.4v3.6h-0.4V307.3z"/>
		<path d="M-299.6,307.3h0.4v0.5l0,0c0.2-0.4,0.5-0.6,0.9-0.6c0.5,0,0.9,0.3,0.9,1v2.7h-0.4v-2.6c0-0.5-0.2-0.7-0.6-0.7
			c-0.5,0-0.8,0.4-0.8,0.9v2.4h-0.4V307.3z"/>
		<path d="M-291.7,307.3h0.4v3.3c0,1-0.4,1.5-1.2,1.5c-0.7,0-1.1-0.4-1.1-0.9h0.4c0,0.3,0.3,0.5,0.7,0.5c0.5,0,0.8-0.3,0.8-1v-0.6
			l0,0c-0.1,0.4-0.5,0.6-0.8,0.6c-0.5,0-1.1-0.4-1.1-1.8c0-1.2,0.4-1.9,1.1-1.9c0.4,0,0.7,0.2,0.8,0.6l0,0L-291.7,307.3
			L-291.7,307.3z M-292.4,310.6c0.5,0,0.8-0.3,0.8-1.5c0-1.1-0.3-1.5-0.8-1.5s-0.8,0.3-0.8,1.5
			C-293.2,310.2-292.9,310.6-292.4,310.6z"/>
	</g>
	<g>
		
			<linearGradient id="SVGID_1_" gradientUnits="userSpaceOnUse" x1="-367.7994" y1="265.4676" x2="-367.7994" y2="281.4134" gradientTransform="matrix(1 0 0 -1 0 565.8)">
			<stop  offset="0" style="stop-color:#CC2128"/>
			<stop  offset="0.4909" style="stop-color:#A31A1F"/>
			<stop  offset="1" style="stop-color:#841014"/>
		</linearGradient>
		<path fill="url(#SVGID_1_)" d="M-375.7,284.6v2.2c2-2.4,4.2-2.4,4.9-2.4c1.9,0,3.8,1.1,4.7,3c1.2-1.7,3-3,5.2-3
			c2.4,0,4,1.3,4.8,2.6c0.7,1.3,0.7,3.5,0.7,4.1v9.2h-4.6v-6.4c0-2,0-3.8-0.2-4.6c-0.3-1.2-1.4-1.7-2.2-1.7c-1.4,0-2.6,1.2-3.1,1.6
			v11h-4.6v-8.1c0-1.8-0.1-2.5-0.2-3c-0.2-0.8-1-1.6-2-1.6c-1.2,0-2.4,0.8-3.3,1.8v10.9h-4.6v-15.7L-375.7,284.6L-375.7,284.6z"/>
		
			<linearGradient id="SVGID_2_" gradientUnits="userSpaceOnUse" x1="-344.7994" y1="265.2676" x2="-344.7994" y2="281.4182" gradientTransform="matrix(1 0 0 -1 0 565.8)">
			<stop  offset="0" style="stop-color:#CC2128"/>
			<stop  offset="0.4909" style="stop-color:#A31A1F"/>
			<stop  offset="1" style="stop-color:#841014"/>
		</linearGradient>
		<path fill="url(#SVGID_2_)" d="M-337.5,298.3c-1.2,1-2.9,2.2-6.4,2.2c-6.4,0-8.5-4.5-8.5-8.1s2.2-8,7.7-8c5.6,0,7.5,4.2,7.5,8.8
			h-10.3c0.1,1.1,0.5,4.5,4.5,4.5c2,0,3.8-0.9,5.5-2.3L-337.5,298.3L-337.5,298.3z M-341.1,290.7c-0.3-2.3-1.6-3.5-3.3-3.5
			c-1.7,0-2.8,1.4-3.1,3.5H-341.1z"/>
		
			<linearGradient id="SVGID_3_" gradientUnits="userSpaceOnUse" x1="-327.6493" y1="265.2676" x2="-327.6493" y2="281.4182" gradientTransform="matrix(1 0 0 -1 0 565.8)">
			<stop  offset="0" style="stop-color:#CC2128"/>
			<stop  offset="0.4909" style="stop-color:#A31A1F"/>
			<stop  offset="1" style="stop-color:#841014"/>
		</linearGradient>
		<path fill="url(#SVGID_3_)" d="M-322.2,295.4c0,0.7,0,1.4,0.7,1.4c0.3,0,0.7-0.2,1.7-0.8v2.8c-1.7,0.9-3,1.7-4.4,1.7
			c-0.9,0-1.9-0.5-2.3-1.5c-0.6,0.4-2.6,1.5-4.5,1.5c-1.8,0-4.5-1-4.5-3.8c0-2.4,1.6-4,4.6-4.9l4.2-1.4c0-1.4,0-3-2.6-3
			c-2.8,0-4.5,1.9-5.4,2.9v-3.8c1.7-1.6,3.9-2.1,6.3-2.1c1.3,0,3.7,0.2,5.3,2c1,1.2,1,2.4,1,3.4v5.6H-322.2z M-326.8,292.8
			c-1.6,0.4-4,1.2-4,3c0,1,0.6,1.7,1.5,1.7c1.4,0,2-0.8,2.5-1.2V292.8z"/>
		
			<linearGradient id="SVGID_4_" gradientUnits="userSpaceOnUse" x1="-313.1494" y1="265.2676" x2="-313.1494" y2="286.1204" gradientTransform="matrix(1 0 0 -1 0 565.8)">
			<stop  offset="0" style="stop-color:#CC2128"/>
			<stop  offset="0.4909" style="stop-color:#A31A1F"/>
			<stop  offset="1" style="stop-color:#841014"/>
		</linearGradient>
		<path fill="url(#SVGID_4_)" d="M-312.5,284.6h5.1v3.1h-5.1v5.8c0,1.6,0,3.7,2.5,3.7c1,0,1.8-0.3,2.8-1v3.5
			c-1.3,0.4-2.5,0.8-4.2,0.8c-1.5,0-3.9-0.3-5.1-2.6c-0.6-1.2-0.6-3-0.6-4v-6.3h-2v-0.5l6.3-7.5h0.4L-312.5,284.6L-312.5,284.6z"/>
		
			<linearGradient id="SVGID_5_" gradientUnits="userSpaceOnUse" x1="-299.7994" y1="265.261" x2="-299.7994" y2="281.4117" gradientTransform="matrix(1 0 0 -1 0 565.8)">
			<stop  offset="0" style="stop-color:#CC2128"/>
			<stop  offset="0.4909" style="stop-color:#A31A1F"/>
			<stop  offset="1" style="stop-color:#841014"/>
		</linearGradient>
		<path fill="url(#SVGID_5_)" d="M-295,288.9c-1.2-0.9-2.7-1.5-4.2-1.5s-1.9,0.6-1.9,1.1c0,0.9,1.1,1.4,3.1,2.3
			c1.4,0.6,3.8,1.8,3.8,4.9c0,1.8-1.1,4.9-5.8,4.9c-2.6,0-4.2-0.8-5.2-1.3v-3.5c1.7,1.2,3.4,1.6,4.5,1.6c1.5,0,2.1-0.6,2.1-1.2
			c0-0.9-0.9-1.3-3.5-2.6c-1.1-0.5-3.3-1.6-3.3-4.5c0-1.9,1.3-4.6,5.9-4.6c2.6,0,4,0.7,4.6,1v3.4H-295z"/>
	</g>
	<g>
		<path fill="#394049" d="M-385.8,272.7l2.6-18.9h6.2l-4,29h-5.9l-11.9-19.6h-0.1l-2.7,19.6h-6.2l4.1-29h6.2L-385.8,272.7
			L-385.8,272.7z"/>
		<path fill="#394049" d="M-367.9,283.2c-5.5,0-9.7-4.1-9.7-9.3c0-5.9,5-10.7,11.1-10.7c5.5,0,9.6,3.6,9.6,9.1
			C-357,278.4-361.7,283.2-367.9,283.2z M-366.8,267.9c-3.7,0-4.9,4.4-4.9,6.4c0,2.9,2.1,4.3,3.8,4.3c3.3,0,5-3.7,5-6.4
			C-362.9,269.6-364.5,267.9-366.8,267.9z"/>
		<path fill="#394049" d="M-348.8,274.2l5.1-10.7h6.1l-10.5,19.6h-3.9l-4.9-19.6h5.6L-348.8,274.2L-348.8,274.2z"/>
		<path fill="#394049" d="M-327.5,281c-1.9,1.5-3.6,2.1-5.6,2.1c-3.9,0-6.8-3.4-6.8-8.2c0-5.6,3.6-11.7,14-11.7
			c2.4,0,4.1,0.1,6.5,0.6l-2.7,19h-5.7L-327.5,281z M-325.7,268c-0.4,0-0.8-0.1-1.2-0.1c-6,0-7,5.1-7,7.3c0,2.3,1.1,3.7,2.8,3.7
			c1.3,0,2.8-0.6,4.1-1.7L-325.7,268z"/>
	</g>
	<g>
		<g>
			<g enable-background="new    ">
				<g enable-background="new    ">
					<g>
						
							<linearGradient id="SVGID_6_" gradientUnits="userSpaceOnUse" x1="1245.9797" y1="-891.1929" x2="1264.4529" y2="-891.1929" gradientTransform="matrix(-1 0 0 1 947.0979 1155.6077)">
							<stop  offset="0" style="stop-color:#CC2128"/>
							<stop  offset="0.4909" style="stop-color:#A31A1F"/>
							<stop  offset="1" style="stop-color:#841014"/>
						</linearGradient>
						<path fill="url(#SVGID_6_)" d="M-302.1,267.8c-1.5,2.1-1.6,2.3-2.4,3.4c-15.3-11.6-9.1-18.1-5.7-20.3
							c-0.6,0.3-1.4,0.7-2.1,1.2l-0.7,0.6c-1.1,1-1.2,1.1-1.9,1.9c-0.2,0.3-0.5,0.7-0.7,1c-5.1,8,1.6,15.1,8.2,19.7
							c-0.5,0.7-0.8,1.3-1.1,2.1c2.4,0.3,5.3,0.6,9.7,0.4C-299.1,276.6-299.1,276.6-302.1,267.8L-302.1,267.8z"/>
					</g>
				</g>
			</g>
		</g>
	</g>
	<g>
		<g>
			<g enable-background="new    ">
				<g enable-background="new    ">
					<g>
						<path fill="#394049" d="M-306.4,260.8c1.5-2.1,1.6-2.3,2.4-3.4c15.3,11.6,9.1,18.1,5.7,20.3c0.6-0.3,1.4-0.7,2.1-1.2l0.7-0.6
							c1.1-1,1.2-1.1,1.9-1.9c0.2-0.3,0.5-0.7,0.7-1c5.1-8-1.6-15.1-8.2-19.7c0.5-0.7,0.8-1.3,1.1-2.1c-2.4-0.3-5.3-0.6-9.7-0.4
							C-309.4,251.9-309.4,251.9-306.4,260.8L-306.4,260.8z"/>
					</g>
				</g>
			</g>
		</g>
	</g>
</g>
</svg>
