<?xml version="1.0" encoding="utf-8"?>
<!-- Generator: Adobe Illustrator 19.1.0, SVG Export Plug-In . SVG Version: 6.00 Build 0)  -->
<svg version="1.1" id="Capa_1" xmlns="http://www.w3.org/2000/svg" xmlns:xlink="http://www.w3.org/1999/xlink" x="0px" y="0px"
	 viewBox="0 0 92.1 28.7" style="enable-background:new 0 0 92.1 28.7;" xml:space="preserve">
<style type="text/css">
	.st0{fill:#AEAEB2;}
	.st1{fill:#518F65;}
	.st2{fill:#FFFFFF;}
</style>
<g>
	<g>
		<path class="st0" d="M27.8,8.1h2.8l2.2,9.7h0l2.4-9.7h2.8l-2.8,10.6c-0.2,0.7-0.4,1.3-0.8,1.6c-0.4,0.4-1,0.6-1.7,0.6
			c-0.7,0-1.3-0.2-1.7-0.6c-0.3-0.3-0.6-0.9-0.8-1.6L27.8,8.1z"/>
		<path class="st0" d="M41.5,20.7h-2.8v-8.2c0-1.2,0.3-2.3,1-3.1c0.8-1,2-1.5,3.5-1.5c1.5,0,2.7,0.5,3.5,1.5c0.7,0.8,1,1.9,1,3.1
			v8.2h-2.8v-4.5h-2.7v-2.4h2.7V12c0-1.1-0.6-1.7-1.7-1.7c-1.1,0-1.7,0.6-1.7,1.7V20.7z"/>
		<path class="st0" d="M49.7,8.1h2.6v8.5c0,0.6,0.1,0.9,0.3,1.2c0.2,0.2,0.6,0.3,1,0.3h2v2.7H53c-2.3,0-3.4-1.3-3.4-3.8V8.1z"/>
		<path class="st1" d="M57.6,14.7v6h-0.8v-8.9c0-1.2,0.3-2.1,1-2.8c0.6-0.6,1.3-0.9,2.2-0.9h2.7v0.7h-2.5c-0.8,0-1.5,0.3-2,0.9
			c-0.5,0.6-0.8,1.3-0.8,2.2V14h5.2v0.7H57.6z"/>
		<path class="st1" d="M66,20.7h-0.8V8.1H66V20.7z"/>
		<path class="st1" d="M68.8,8.1h0.8v8.8c0,0.9,0.3,1.6,0.8,2.2c0.5,0.6,1.2,0.9,2,0.9h2.4v0.7H72c-0.9,0-1.6-0.3-2.2-0.9
			c-0.7-0.7-1-1.6-1-2.8V8.1z"/>
		<path class="st1" d="M75.9,20.7h-0.8l1.6-11.5c0.1-0.9,0.4-1.3,0.9-1.3c0.3,0,0.6,0.1,0.7,0.2c0.1,0.2,0.3,0.6,0.5,1.3l3,10.2
			C82,19.9,82,20,82.1,20c0.1,0,0.1-0.1,0.2-0.4l3-10.2c0.2-0.7,0.4-1.1,0.5-1.3c0.1-0.2,0.4-0.2,0.7-0.2c0.5,0,0.8,0.4,0.9,1.3
			l1.6,11.5h-0.8L86.8,9.1c0-0.3-0.1-0.5-0.3-0.5c-0.1,0-0.2,0.2-0.3,0.5l-3,10.3c-0.2,0.6-0.3,1-0.4,1.2c-0.1,0.2-0.3,0.2-0.6,0.2
			c-0.3,0-0.5-0.1-0.6-0.2c-0.1-0.2-0.3-0.5-0.4-1.2L78,9.1c-0.1-0.3-0.2-0.5-0.3-0.5c-0.1,0-0.2,0.2-0.3,0.5L75.9,20.7z"/>
	</g>
	<g>
		<path d="M11.7,14.3"/>
		<path class="st1" d="M11.7,14.2l8.1-8.5c-0.2-0.1-0.4-0.2-0.7-0.2H4.3C3.6,5.5,3,6.2,3,6.9v2.6l1.8-1.9l2.2,2.1L3,14v4.9l6.5-6.7
			L11.7,14.2"/>
		<path d="M11.7,14.2"/>
		<path class="st0" d="M11.7,14.3l-8.3,8.6C3.7,23,4,23.2,4.3,23.2h14.8c0.7,0,1.4-0.6,1.4-1.4v-3l-2,2.1l-2.2-2.1l4.2-4.3V9.5
			l-6.6,6.8L11.7,14.3"/>
		<path class="st2" d="M9.6,12.1l-6.3,6.7v2.9c0,0.4,0,0.8,0.3,1l8.2-8.5L9.6,12.1z"/>
		<polygon class="st2" points="5,7.6 3.3,9.6 3.3,14 7.3,9.8 		"/>
		<path class="st2" d="M13.8,16.3l6.5-6.8V6.9c0-0.5-0.2-0.9-0.6-1.2l-8.1,8.4L13.8,16.3z"/>
		<polygon class="st2" points="18.4,20.8 20.3,18.8 20.3,14.4 16.1,18.7 		"/>
	</g>
</g>
</svg>
