<?xml version="1.0" encoding="utf-8"?>
<!-- Generator: Adobe Illustrator 19.1.0, SVG Export Plug-In . SVG Version: 6.00 Build 0)  -->
<svg version="1.1" id="Capa_1" xmlns="http://www.w3.org/2000/svg" xmlns:xlink="http://www.w3.org/1999/xlink" x="0px" y="0px"
	 viewBox="-236 363.9 121.1 115" style="enable-background:new -236 363.9 121.1 115;" xml:space="preserve">
<style type="text/css">
	.st0{fill:#010302;}
	.st1{fill:#497BB5;}
	.st2{fill:#262323;}
	.st3{fill:#1A1E25;}
</style>
<g>
	<g>
		<polygon class="st0" points="-207,437.3 -214,437.3 -214,376.6 -174.4,414.4 -178.4,420.1 -207,392.6 		"/>
	</g>
	<g>
		
			<rect x="-167.4" y="361.1" transform="matrix(0.8334 0.5527 -0.5527 0.8334 200.9967 159.8795)" class="st1" width="5.4" height="104.4"/>
	</g>
	<g>
		<polygon class="st2" points="-138.1,437.3 -144.9,437.3 -144.9,404.1 -138.1,392.6 		"/>
	</g>
	<g>
		<path class="st3" d="M-224.1,473.9c-0.4,0.2-0.8,0.3-1.2,0.4c-0.4,0.1-0.9,0.2-1.3,0.2c-0.5,0-1-0.1-1.5-0.2
			c-0.4-0.1-0.8-0.4-1.1-0.7c-0.3-0.3-0.6-0.7-0.7-1.1c-0.2-0.4-0.3-1-0.3-1.6c0-1.1,0.3-2,1-2.6c0.6-0.6,1.5-0.9,2.6-0.9
			c0.4,0,0.8,0,1.2,0.1c0.4,0.1,0.8,0.3,1.3,0.5v1.1h-0.1c-0.1-0.1-0.2-0.2-0.4-0.3c-0.2-0.1-0.4-0.2-0.5-0.3
			c-0.2-0.1-0.5-0.2-0.7-0.2s-0.6-0.1-0.9-0.1c-0.8,0-1.4,0.2-1.8,0.7s-0.7,1.2-0.7,2c0,0.9,0.2,1.6,0.7,2.1s1.1,0.7,1.9,0.7
			c0.3,0,0.6,0,0.9-0.1s0.5-0.1,0.8-0.2v-1.7h-1.8v-0.8h2.7v3H-224.1z"/>
		<path class="st3" d="M-208.6,474.4h-1.2l-2.3-2.7h-1.3v2.7h-0.9v-6.8h1.9c0.4,0,0.8,0,1,0.1s0.5,0.1,0.7,0.3
			c0.2,0.2,0.4,0.4,0.6,0.6c0.1,0.2,0.2,0.5,0.2,0.9c0,0.5-0.1,0.9-0.4,1.2c-0.2,0.3-0.6,0.6-1,0.8L-208.6,474.4z M-210.8,469.5
			c0-0.2,0-0.4-0.1-0.5s-0.2-0.3-0.3-0.4c-0.1-0.1-0.3-0.2-0.5-0.2s-0.4-0.1-0.6-0.1h-1.1v2.6h0.9c0.3,0,0.5,0,0.8-0.1
			c0.2-0.1,0.4-0.1,0.5-0.3c0.1-0.1,0.2-0.3,0.3-0.4C-210.9,469.9-210.8,469.7-210.8,469.5z"/>
		<path class="st3" d="M-194.4,471.6c0,0.5-0.1,0.9-0.2,1.3s-0.3,0.7-0.5,0.9c-0.2,0.2-0.5,0.4-0.8,0.5s-0.7,0.2-1.1,0.2
			s-0.8-0.1-1.1-0.2c-0.3-0.1-0.6-0.3-0.8-0.5c-0.2-0.2-0.4-0.6-0.5-0.9c-0.1-0.4-0.2-0.8-0.2-1.3v-4.1h0.9v4.1c0,0.4,0,0.7,0.1,0.9
			s0.1,0.4,0.3,0.6c0.1,0.2,0.3,0.3,0.5,0.5c0.2,0.1,0.5,0.2,0.8,0.2s0.6,0,0.8-0.1c0.2-0.1,0.4-0.2,0.6-0.5
			c0.1-0.2,0.2-0.4,0.3-0.6s0.1-0.5,0.1-0.8v-4.2h0.9L-194.4,471.6L-194.4,471.6z"/>
		<path class="st3" d="M-179.9,469.6c0,0.3-0.1,0.6-0.2,0.8c-0.1,0.2-0.3,0.5-0.4,0.7c-0.2,0.2-0.5,0.4-0.8,0.5s-0.7,0.2-1.2,0.2
			h-0.9v2.5h-0.9v-6.8h1.9c0.4,0,0.8,0,1,0.1c0.3,0.1,0.5,0.2,0.8,0.3c0.3,0.2,0.5,0.4,0.6,0.7C-180,468.9-179.9,469.2-179.9,469.6z
			 M-180.9,469.6c0-0.2,0-0.4-0.1-0.6s-0.2-0.3-0.4-0.4c-0.1-0.1-0.3-0.2-0.5-0.2s-0.4-0.1-0.7-0.1h-0.9v2.7h0.8
			c0.4,0,0.7,0,0.9-0.1c0.2-0.1,0.4-0.2,0.6-0.3c0.1-0.1,0.2-0.3,0.3-0.5C-180.9,470-180.9,469.8-180.9,469.6z"/>
		<path class="st3" d="M-165.2,468.3c0.3,0.3,0.5,0.7,0.6,1.1s0.2,0.9,0.2,1.5s-0.1,1.1-0.2,1.5s-0.4,0.8-0.6,1.1
			c-0.3,0.3-0.6,0.5-1,0.7s-0.8,0.2-1.3,0.2s-0.9-0.1-1.3-0.2c-0.4-0.2-0.7-0.4-1-0.7c-0.3-0.3-0.5-0.7-0.6-1.1s-0.2-0.9-0.2-1.5
			s0.1-1.1,0.2-1.5s0.4-0.8,0.6-1.1c0.3-0.3,0.6-0.5,1-0.7s0.8-0.2,1.3-0.2s0.9,0.1,1.3,0.2C-166,467.8-165.6,468-165.2,468.3z
			 M-165.4,471c0-0.9-0.2-1.6-0.6-2.1s-0.9-0.7-1.6-0.7s-1.2,0.2-1.6,0.7s-0.6,1.2-0.6,2.1s0.2,1.6,0.6,2.1s0.9,0.7,1.6,0.7
			s1.2-0.2,1.6-0.7S-165.4,471.8-165.4,471z"/>
		<path class="st3" d="M-152.1,471.8h-2.9V471h2.9V471.8z"/>
		<path class="st3" d="M-137,474.4h-1.1l-3.2-6.1v6.1h-0.8v-6.8h1.4l3,5.6v-5.6h0.8L-137,474.4L-137,474.4z"/>
		<path class="st3" d="M-120.8,474.4h-0.9v-5.9l-1.9,4h-0.5l-1.9-4v5.9h-0.8v-6.8h1.2l1.8,3.8l1.8-3.8h1.3v6.8H-120.8z"/>
	</g>
</g>
</svg>
